<svg xmlns="http://www.w3.org/2000/svg" version="1.1" xmlns:xlink="http://www.w3.org/1999/xlink" width="512" height="512" x="0" y="0" viewBox="0 0 512 512" style="enable-background:new 0 0 512 512" xml:space="preserve" class="hovered-paths"><g><path fill="#fffcff" d="M427.762 117.473v277.054c0 18.355-14.88 33.235-33.235 33.235H117.473c-18.355 0-33.235-14.88-33.235-33.235V117.473c0-18.355 14.88-33.235 33.235-33.235h277.054c18.355 0 33.235 14.88 33.235 33.235z" opacity="1" data-original="#fffcff" class="hovered-path"></path><path fill="#c399f0" d="M128.355 371.145v-230.29c0-6.904 5.596-12.5 12.5-12.5h230.29c6.904 0 12.5 5.596 12.5 12.5v230.29c0 6.904-5.596 12.5-12.5 12.5h-230.29c-6.904 0-12.5-5.596-12.5-12.5z" opacity="1" data-original="#6acdf3" class=""></path><path fill="#fff" d="M179.677 383.645h-38.823a12.49 12.49 0 0 1-12.5-12.5v-230.29a12.49 12.49 0 0 1 12.5-12.5h38.823a12.49 12.49 0 0 0-12.5 12.5v230.29c.001 6.912 5.589 12.5 12.5 12.5z" opacity=".4"></path><g fill="#ffc563"><path d="M157.178 28.749v55.489h-35.293V28.749c0-9.746 7.901-17.647 17.647-17.647 9.745 0 17.646 7.901 17.646 17.647zM234.824 28.749v55.489H199.53V28.749c0-9.746 7.901-17.647 17.647-17.647 9.746 0 17.647 7.901 17.647 17.647zM312.47 28.749v55.489h-35.293V28.749c0-9.746 7.901-17.647 17.647-17.647 9.745 0 17.646 7.901 17.646 17.647zM390.115 28.749v55.489h-35.293V28.749c0-9.746 7.901-17.647 17.647-17.647 9.746 0 17.646 7.901 17.646 17.647zM354.822 483.251v-55.489h35.293v55.489c0 9.746-7.901 17.647-17.647 17.647-9.746 0-17.646-7.901-17.646-17.647zM277.176 483.251v-55.489h35.293v55.489c0 9.746-7.901 17.647-17.647 17.647-9.745 0-17.646-7.901-17.646-17.647zM199.53 483.251v-55.489h35.293v55.489c0 9.746-7.901 17.647-17.647 17.647-9.745 0-17.646-7.901-17.646-17.647zM121.884 483.251v-55.489h35.293v55.489c0 9.746-7.901 17.647-17.647 17.647-9.745 0-17.646-7.901-17.646-17.647zM483.251 157.178h-55.489v-35.293h55.489c9.746 0 17.647 7.901 17.647 17.647 0 9.746-7.901 17.646-17.647 17.646zM483.251 234.824h-55.489v-35.293h55.489c9.746 0 17.647 7.901 17.647 17.647 0 9.745-7.901 17.646-17.647 17.646zM483.251 312.47h-55.489v-35.293h55.489c9.746 0 17.647 7.901 17.647 17.647 0 9.745-7.901 17.646-17.647 17.646zM483.251 390.116h-55.489v-35.293h55.489c9.746 0 17.647 7.901 17.647 17.647 0 9.745-7.901 17.646-17.647 17.646zM28.749 354.822h55.489v35.293H28.749c-9.746 0-17.647-7.901-17.647-17.647 0-9.745 7.901-17.646 17.647-17.646zM28.749 277.176h55.489v35.293H28.749c-9.746 0-17.647-7.901-17.647-17.647 0-9.745 7.901-17.646 17.647-17.646zM28.749 199.53h55.489v35.293H28.749c-9.746 0-17.647-7.901-17.647-17.647 0-9.745 7.901-17.646 17.647-17.646zM28.749 121.885h55.489v35.293H28.749c-9.746 0-17.647-7.901-17.647-17.647 0-9.746 7.901-17.646 17.647-17.646z"></path></g><path fill="#281261" d="M371.144 123.454h-230.29c-9.596 0-17.401 7.805-17.401 17.401v230.29c0 9.596 7.805 17.403 17.401 17.403h230.29c9.596 0 17.403-7.808 17.403-17.403v-230.29c0-9.596-7.808-17.401-17.403-17.401zm7.599 247.691c0 4.191-3.408 7.599-7.599 7.599h-230.29c-4.189 0-7.597-3.408-7.597-7.599v-230.29c0-4.189 3.408-7.597 7.597-7.597h230.29c4.191 0 7.599 3.408 7.599 7.597z"></path><path fill="#281261" d="M483.25 162.08c12.434 0 22.549-10.115 22.549-22.549s-10.115-22.549-22.549-22.549h-50.611c-.264-20.634-16.986-37.356-37.622-37.62V28.748c0-12.434-10.115-22.549-22.549-22.549-12.432 0-22.547 10.115-22.547 22.549v50.589h-32.549V28.748c0-12.434-10.115-22.549-22.549-22.549s-22.549 10.115-22.549 22.549v50.589h-32.547V28.748c0-12.434-10.115-22.549-22.549-22.549s-22.549 10.115-22.549 22.549v50.589H162.08V28.748c0-12.434-10.115-22.549-22.549-22.549-12.432 0-22.547 10.115-22.547 22.549v50.614c-20.636.264-37.358 16.986-37.622 37.62H28.75c-12.434 0-22.549 10.115-22.549 22.549S16.315 162.08 28.75 162.08h50.587v32.549H28.75c-12.434 0-22.549 10.115-22.549 22.547 0 12.434 10.115 22.549 22.549 22.549h50.587v32.549H28.75c-12.434 0-22.549 10.115-22.549 22.549 0 12.432 10.115 22.547 22.549 22.547h50.587v32.549H28.75c-12.434 0-22.549 10.115-22.549 22.549s10.115 22.549 22.549 22.549h50.611c.264 20.634 16.986 37.356 37.622 37.62v50.614c0 12.434 10.115 22.549 22.547 22.549 12.434 0 22.549-10.115 22.549-22.549v-50.589h32.549v50.589c0 12.434 10.115 22.549 22.549 22.549s22.549-10.115 22.549-22.549v-50.589h32.547v50.589c0 12.434 10.115 22.549 22.549 22.549s22.549-10.115 22.549-22.549v-50.589h32.549v50.589c0 12.434 10.115 22.549 22.547 22.549 12.434 0 22.549-10.115 22.549-22.549v-50.614c20.636-.264 37.358-16.986 37.622-37.62h50.611c12.434 0 22.549-10.115 22.549-22.549s-10.115-22.549-22.549-22.549h-50.587v-32.547h50.587c12.434 0 22.549-10.115 22.549-22.549s-10.115-22.549-22.549-22.549h-50.587v-32.549h50.587c12.434 0 22.549-10.115 22.549-22.549 0-12.432-10.115-22.547-22.549-22.547h-50.587V162.08zm-50.586-35.294h50.587c7.027 0 12.745 5.718 12.745 12.745s-5.718 12.745-12.745 12.745h-50.587zM79.336 385.214H28.75c-7.027 0-12.745-5.718-12.745-12.745s5.718-12.745 12.745-12.745h50.587v25.49zm0-77.647H28.75c-7.027 0-12.745-5.716-12.745-12.743s5.718-12.745 12.745-12.745h50.587v25.488zm0-77.645H28.75c-7.027 0-12.745-5.718-12.745-12.745s5.718-12.743 12.745-12.743h50.587v25.488zm0-77.645H28.75c-7.027 0-12.745-5.718-12.745-12.745s5.718-12.745 12.745-12.745h50.587v25.49zM359.725 28.748c0-7.027 5.716-12.745 12.743-12.745s12.745 5.718 12.745 12.745v50.589h-25.488zm-77.648 0c0-7.027 5.718-12.745 12.745-12.745s12.745 5.718 12.745 12.745v50.589h-25.491V28.748zm-77.645 0c0-7.027 5.718-12.745 12.745-12.745s12.745 5.718 12.745 12.745v50.589h-25.491V28.748zm-77.645 0c0-7.027 5.718-12.745 12.745-12.745s12.743 5.718 12.743 12.745v50.589h-25.488zm25.488 454.504c0 7.027-5.718 12.745-12.745 12.745s-12.743-5.718-12.743-12.745v-50.587h25.488zm77.648 0c0 7.027-5.718 12.745-12.745 12.745s-12.745-5.718-12.745-12.745v-50.587h25.491v50.587zm77.645 0c0 7.027-5.718 12.745-12.745 12.745s-12.745-5.718-12.745-12.745v-50.587h25.491v50.587zm77.645 0c0 7.027-5.718 12.745-12.745 12.745s-12.743-5.718-12.743-12.745v-50.587h25.488zm37.647-88.725c0 15.622-12.709 28.332-28.334 28.332H117.474c-15.625 0-28.334-12.709-28.334-28.332V117.473c0-15.622 12.709-28.332 28.334-28.332h277.052c15.625 0 28.334 12.709 28.334 28.332zm60.39-34.804c7.027 0 12.745 5.718 12.745 12.745s-5.718 12.745-12.745 12.745h-50.587v-25.491h50.587zm0-77.645c7.027 0 12.745 5.718 12.745 12.745s-5.718 12.745-12.745 12.745h-50.587v-25.491h50.587zm0-77.645c7.027 0 12.745 5.716 12.745 12.743s-5.718 12.745-12.745 12.745h-50.587v-25.488z"></path><path fill="#fff" d="M184.018 222.782h-17.157a4.902 4.902 0 0 0-4.902 4.902v56.634a4.902 4.902 0 0 0 4.902 4.902h17.157c10.51 0 19.059-8.552 19.059-19.062 0-5.643-2.512-10.665-6.421-14.158 3.909-3.493 6.421-8.517 6.421-14.159 0-10.51-8.549-19.059-19.059-19.059zm0 56.635h-12.255v-18.514h12.255c5.103 0 9.256 4.153 9.256 9.256 0 5.105-4.153 9.258-9.256 9.258zm0-28.318h-12.255v-18.514h12.255c5.103 0 9.256 4.153 9.256 9.256 0 5.106-4.153 9.258-9.256 9.258zM278.329 222.779c-10.51 0-19.059 8.552-19.059 19.062v28.317c0 10.51 8.55 19.062 19.059 19.062s19.062-8.552 19.062-19.062v-28.317c0-10.51-8.552-19.062-19.062-19.062zm9.258 47.38c0 5.105-4.153 9.258-9.258 9.258-5.103 0-9.256-4.153-9.256-9.258v-28.317c0-5.105 4.153-9.258 9.256-9.258 5.105 0 9.258 4.153 9.258 9.258zM330.979 232.586h14.16a4.902 4.902 0 0 0 0-9.804h-14.16c-10.51 0-19.059 8.55-19.059 19.059s8.55 19.062 19.059 19.062c5.105 0 9.258 4.153 9.258 9.256 0 5.105-4.153 9.258-9.258 9.258h-14.158a4.902 4.902 0 0 0 0 9.804h14.158c10.51 0 19.062-8.552 19.062-19.062s-8.552-19.059-19.062-19.059c-5.103 0-9.256-4.153-9.256-9.258 0-5.104 4.153-9.256 9.256-9.256zM239.839 232.586a4.902 4.902 0 0 0 0-9.804h-20.357a4.902 4.902 0 0 0 0 9.804h5.275v46.831h-5.275a4.902 4.902 0 0 0 0 9.804h20.357a4.902 4.902 0 0 0 0-9.804h-5.278v-46.831z"></path></g></svg>