<svg xmlns="http://www.w3.org/2000/svg" version="1.1" xmlns:xlink="http://www.w3.org/1999/xlink" width="512" height="512" x="0" y="0" viewBox="0 0 682.667 682.667" style="enable-background:new 0 0 512 512" xml:space="preserve" class=""><g><defs><clipPath id="a" clipPathUnits="userSpaceOnUse"><path d="M0 512h512V0H0Z" fill="#000000" opacity="1" data-original="#000000"></path></clipPath></defs><g clip-path="url(#a)" transform="matrix(1.33333 0 0 -1.33333 0 682.667)"><path d="M0 0v-292.414h497V0c0 6.627-5.373 12-12 12H12C5.373 12 0 6.627 0 0" style="fill-opacity:1;fill-rule:nonzero;stroke:none" transform="translate(7.5 473.005)" fill="#91dafa" data-original="#91dafa" class=""></path><path d="M0 0h-29c6.627 0 12-5.373 12-12v-292.414h29V-12C12-5.373 6.627 0 0 0" style="fill-opacity:1;fill-rule:nonzero;stroke:none" transform="translate(492.5 485.005)" fill="#6cbff8" data-original="#6cbff8"></path><path d="M0 0v35.288h497V0c0-6.628-5.373-12-12-12H12C5.373-12 0-6.628 0 0" style="fill-opacity:1;fill-rule:nonzero;stroke:none" transform="translate(7.5 145.303)" fill="#C399F0" data-original="#C399F0" class=""></path><path d="M0 0v-35.288c0-6.628-5.373-12-12-12h29c6.627 0 12 5.372 12 12V0Z" style="fill-opacity:1;fill-rule:nonzero;stroke:none" transform="translate(475.5 180.59)" fill="#6A1AA0" data-original="#6A1AA0"></path><path d="M0 0v19.751a7.112 7.112 0 0 0 7.113 7.112h177.08a7.113 7.113 0 0 0 7.113-7.112V0a7.113 7.113 0 0 0-7.113-7.113H7.113A7.113 7.113 0 0 0 0 0" style="fill-opacity:1;fill-rule:nonzero;stroke:none" transform="translate(160.347 34.108)" fill="#C399F0" data-original="#C399F0" class=""></path><path d="M0 0h-29a7.113 7.113 0 0 0 7.113-7.112v-19.751A7.114 7.114 0 0 0-29-33.977H0a7.114 7.114 0 0 1 7.113 7.114v19.751A7.113 7.113 0 0 1 0 0" style="fill-opacity:1;fill-rule:nonzero;stroke:none" transform="translate(344.54 60.972)" fill="#6A1AA0" data-original="#6A1AA0"></path><path d="M220.068 60.972h71.864v72.331h-71.864z" style="fill-opacity:1;fill-rule:nonzero;stroke:none" fill="#d6e0f4" data-original="#d6e0f4" class=""></path><path d="M262.932 60.972h29v72.331h-29z" style="fill-opacity:1;fill-rule:nonzero;stroke:none" fill="#b8c9ea" data-original="#b8c9ea"></path><path d="M0 0h-209.632c-7.025 0-12.72 5.695-12.72 12.72v109.247c0 7.025 5.695 12.72 12.72 12.72H0c7.025 0 12.72-5.695 12.72-12.72V12.72C12.72 5.695 7.025 0 0 0" style="fill-opacity:1;fill-rule:nonzero;stroke:none" transform="translate(360.816 222.818)" fill="#C399F0" data-original="#C399F0" class=""></path><path d="M0 0h-27c7.025 0 12.72-5.694 12.72-12.72v-109.247c0-7.024-5.695-12.72-12.72-12.72H0c7.025 0 12.72 5.696 12.72 12.72V-12.72C12.72-5.694 7.025 0 0 0" style="fill-opacity:1;fill-rule:nonzero;stroke:none" transform="translate(360.816 357.505)" fill="#6A1AA0" data-original="#6A1AA0"></path><path d="M0 0c-9.087-5.247-12.201-16.867-6.955-25.955C-1.708-35.042 9.913-38.156 19-32.909c9.087 5.247 12.201 16.867 6.955 25.954C20.708 2.133 9.088 5.246 0 0" style="fill-opacity:1;fill-rule:nonzero;stroke:none" transform="translate(249.72 288.867)" fill="#eec06b" data-original="#eec06b"></path><path d="M0 0c-9.088-5.246-12.202-16.866-6.955-25.954C-1.708-35.042 9.912-38.155 19-32.908c9.087 5.246 12.201 16.866 6.954 25.954C20.708 2.134 9.087 5.247 0 0" style="fill-opacity:1;fill-rule:nonzero;stroke:none" transform="translate(311.206 324.365)" fill="#92e0c4" data-original="#92e0c4"></path><path d="M0 0c-17.863 0-32.343-14.48-32.343-32.343 0-17.863 14.48-32.344 32.343-32.344 17.863 0 32.343 14.481 32.343 32.344S17.863 0 0 0" style="fill-opacity:1;fill-rule:nonzero;stroke:none" transform="translate(204.634 387.191)" fill="#e27f86" data-original="#e27f86"></path><path d="m0 0 19.589-18.87L0-37.74" style="stroke-width:15;stroke-linecap:round;stroke-linejoin:round;stroke-miterlimit:10;stroke-dasharray:none;stroke-opacity:1" transform="translate(89.198 446.365)" fill="none" stroke="#000000" stroke-width="15" stroke-linecap="round" stroke-linejoin="round" stroke-miterlimit="10" stroke-dasharray="none" stroke-opacity="" data-original="#000000" class=""></path><path d="M0 0h15.767" style="stroke-width:15;stroke-linecap:round;stroke-linejoin:round;stroke-miterlimit:10;stroke-dasharray:none;stroke-opacity:1" transform="translate(128.447 408.625)" fill="none" stroke="#000000" stroke-width="15" stroke-linecap="round" stroke-linejoin="round" stroke-miterlimit="10" stroke-dasharray="none" stroke-opacity="" data-original="#000000" class=""></path><path d="M0 0v-75.2h497v292.414c0 6.627-5.373 12-12 12H12c-6.627 0-12-5.373-12-12V35" style="stroke-width:15;stroke-linecap:round;stroke-linejoin:round;stroke-miterlimit:10;stroke-dasharray:none;stroke-opacity:1" transform="translate(7.5 255.791)" fill="none" stroke="#000000" stroke-width="15" stroke-linecap="round" stroke-linejoin="round" stroke-miterlimit="10" stroke-dasharray="none" stroke-opacity="" data-original="#000000" class=""></path><path d="M0 0v-35.288c0-6.628-5.373-12-12-12h-70.109" style="stroke-width:15;stroke-linecap:round;stroke-linejoin:round;stroke-miterlimit:10;stroke-dasharray:none;stroke-opacity:1" transform="translate(504.5 180.59)" fill="none" stroke="#000000" stroke-width="15" stroke-linecap="round" stroke-linejoin="round" stroke-miterlimit="10" stroke-dasharray="none" stroke-opacity="" data-original="#000000" class=""></path><path d="M0 0h-367.891c-6.627 0-12 5.372-12 12v35.288" style="stroke-width:15;stroke-linecap:round;stroke-linejoin:round;stroke-miterlimit:10;stroke-dasharray:none;stroke-opacity:1" transform="translate(387.39 133.303)" fill="none" stroke="#000000" stroke-width="15" stroke-linecap="round" stroke-linejoin="round" stroke-miterlimit="10" stroke-dasharray="none" stroke-opacity="" data-original="#000000" class=""></path><path d="M0 0v19.751a7.112 7.112 0 0 0 7.113 7.112h177.08a7.113 7.113 0 0 0 7.113-7.112V0a7.113 7.113 0 0 0-7.113-7.113H7.113A7.113 7.113 0 0 0 0 0Z" style="stroke-width:15;stroke-linecap:round;stroke-linejoin:round;stroke-miterlimit:10;stroke-dasharray:none;stroke-opacity:1" transform="translate(160.347 34.108)" fill="none" stroke="#000000" stroke-width="15" stroke-linecap="round" stroke-linejoin="round" stroke-miterlimit="10" stroke-dasharray="none" stroke-opacity="" data-original="#000000" class=""></path><path d="M0 0v72.331" style="stroke-width:15;stroke-linecap:round;stroke-linejoin:round;stroke-miterlimit:10;stroke-dasharray:none;stroke-opacity:1" transform="translate(291.932 60.972)" fill="none" stroke="#000000" stroke-width="15" stroke-linecap="round" stroke-linejoin="round" stroke-miterlimit="10" stroke-dasharray="none" stroke-opacity="" data-original="#000000" class=""></path><path d="M0 0v-72.331" style="stroke-width:15;stroke-linecap:round;stroke-linejoin:round;stroke-miterlimit:10;stroke-dasharray:none;stroke-opacity:1" transform="translate(220.068 133.303)" fill="none" stroke="#000000" stroke-width="15" stroke-linecap="round" stroke-linejoin="round" stroke-miterlimit="10" stroke-dasharray="none" stroke-opacity="" data-original="#000000" class=""></path><path d="M0 0h123.95c7.02 0 12.72-5.7 12.72-12.72v-109.25c0-7.03-5.7-12.719-12.72-12.719H-85.69c-7.02 0-12.72 5.689-12.72 12.719v109.25C-98.41-5.7-92.71 0-85.69 0h21.22" style="stroke-width:15;stroke-linecap:round;stroke-linejoin:round;stroke-miterlimit:10;stroke-dasharray:none;stroke-opacity:1" transform="translate(236.87 357.51)" fill="none" stroke="#000000" stroke-width="15" stroke-linecap="round" stroke-linejoin="round" stroke-miterlimit="10" stroke-dasharray="none" stroke-opacity="" data-original="#000000" class=""></path><path d="M0 0c-9.087-5.247-12.201-16.867-6.955-25.955C-1.708-35.042 9.913-38.156 19-32.909c9.087 5.247 12.201 16.867 6.955 25.954C20.708 2.133 9.088 5.246 0 0Z" style="stroke-width:15;stroke-linecap:round;stroke-linejoin:round;stroke-miterlimit:10;stroke-dasharray:none;stroke-opacity:1" transform="translate(249.72 288.867)" fill="none" stroke="#000000" stroke-width="15" stroke-linecap="round" stroke-linejoin="round" stroke-miterlimit="10" stroke-dasharray="none" stroke-opacity="" data-original="#000000" class=""></path><path d="M0 0c-9.088-5.246-12.202-16.866-6.955-25.954C-1.708-35.042 9.912-38.155 19-32.908c9.087 5.246 12.201 16.866 6.954 25.954C20.708 2.134 9.087 5.247 0 0Z" style="stroke-width:15;stroke-linecap:round;stroke-linejoin:round;stroke-miterlimit:10;stroke-dasharray:none;stroke-opacity:1" transform="translate(311.206 324.365)" fill="none" stroke="#000000" stroke-width="15" stroke-linecap="round" stroke-linejoin="round" stroke-miterlimit="10" stroke-dasharray="none" stroke-opacity="" data-original="#000000" class=""></path><path d="M0 0c-17.863 0-32.343-14.48-32.343-32.343 0-17.863 14.48-32.344 32.343-32.344 17.863 0 32.343 14.481 32.343 32.344S17.863 0 0 0Z" style="stroke-width:15;stroke-linecap:round;stroke-linejoin:round;stroke-miterlimit:10;stroke-dasharray:none;stroke-opacity:1" transform="translate(204.634 387.191)" fill="none" stroke="#000000" stroke-width="15" stroke-linecap="round" stroke-linejoin="round" stroke-miterlimit="10" stroke-dasharray="none" stroke-opacity="" data-original="#000000" class=""></path><path d="M0 0v38.343" style="stroke-width:15;stroke-linecap:round;stroke-linejoin:round;stroke-miterlimit:10;stroke-dasharray:none;stroke-opacity:1" transform="translate(204.634 284.162)" fill="none" stroke="#000000" stroke-width="15" stroke-linecap="round" stroke-linejoin="round" stroke-miterlimit="10" stroke-dasharray="none" stroke-opacity="" data-original="#000000" class=""></path><path d="M0 0v-32.771c0-11.08 8.981-20.06 20.06-20.06h25.186c11.079 0 20.06-8.982 20.06-20.06v-21.19" style="stroke-width:15;stroke-linecap:round;stroke-linejoin:round;stroke-miterlimit:10;stroke-dasharray:none;stroke-opacity:1" transform="translate(256 451.586)" fill="none" stroke="#000000" stroke-width="15" stroke-linecap="round" stroke-linejoin="round" stroke-miterlimit="10" stroke-dasharray="none" stroke-opacity="" data-original="#000000" class=""></path></g></g></svg>