<svg width="256" height="256" viewBox="0 0 1472 1536" xmlns="http://www.w3.org/2000/svg"><rect x="0" y="0" width="1472" height="1536" rx="8" fill="none"/><svg xmlns="http://www.w3.org/2000/svg" viewBox="0 0 1472 1536" fill="#000000" x="0" y="0" width="1472" height="1536"><path fill="#000000" d="M1464 1090q-94 203-283 323.5T768 1536q-157-1-299-62t-244.5-163.5T61 1066T0 768q0-205 97.5-378t267-276.5T738 2q43-2 62 38q17 42-16 72q-176 164-176 400q0 111 43 211.5t115 173t172.5 116T1151 1056q119 0 228-51q41-18 72 13t13 72z"/></svg></svg>