<svg xmlns="http://www.w3.org/2000/svg" version="1.1" xmlns:xlink="http://www.w3.org/1999/xlink" width="512" height="512" x="0" y="0" viewBox="0 0 512 512" style="enable-background:new 0 0 512 512" xml:space="preserve">
  <g>
    <path fill="#c399f0" d="M437.02 74.98C388.672 26.63 324.379 0 256 0c-36.98 0-72.762 7.79-105.469 22.59-27.781 12.558-53.34 30.18-75.55 52.39-24.57 24.57-43.532 53.25-56.231 84.5C6.441 189.72 0 222.371 0 256c0 68.379 26.629 132.672 74.98 181.02C123.328 485.37 187.621 512 256 512c36.61 0 72.04-7.629 104.48-22.14 28.16-12.59 54.07-30.372 76.54-52.84 24.171-24.168 42.902-52.32 55.601-82.961C505.34 323.39 512 290.199 512 256c0-68.379-26.629-132.672-74.98-181.02zM256 303.64h-.059c-26.46 0-47.98-21.519-47.98-47.98 0-26.45 21.52-47.969 47.98-47.969H256c26.422.028 47.91 21.54 47.91 47.97 0 26.44-21.488 47.948-47.91 47.98zm0 0" opacity="1"/>
    <path fill="#a86ff1" d="M512 256c0 34.2-6.66 67.39-19.379 98.059-12.7 30.64-31.43 58.793-55.601 82.96-22.47 22.47-48.38 40.25-76.54 52.84C328.04 504.371 292.61 512 256 512V303.64c26.422-.03 47.91-21.538 47.91-47.98 0-26.43-21.488-47.941-47.91-47.969V0c68.379 0 132.672 26.629 181.02 74.98C485.37 123.328 512 187.621 512 256zM229 191l-40 42-170.25-73.52c12.7-31.25 31.66-59.93 56.23-84.5 22.211-22.21 47.77-39.832 75.551-52.39zm0 0" opacity="1"/>
    <path fill="#7934b9" d="M492.621 354.059c-12.7 30.64-31.43 58.793-55.601 82.96-22.47 22.47-48.38 40.25-76.54 52.84L279 314l49-32zm0 0" opacity="1"/>
    <path fill="#f0e5fd" d="M256 163.73h-.34c-50.488 0-91.57 41.098-91.57 91.63S205.172 347 255.66 347h.34c50.328-.191 91.219-41.219 91.219-91.64 0-50.419-40.89-91.438-91.219-91.63zm0 139.91h-.059c-26.46 0-47.98-21.519-47.98-47.98 0-26.45 21.52-47.969 47.98-47.969H256c26.422.028 47.91 21.54 47.91 47.97 0 26.44-21.488 47.948-47.91 47.98zm0 0" opacity="1"/>
    <path fill="#ddbdfd" d="M347.219 255.36c0 50.421-40.89 91.449-91.219 91.64v-43.36c26.422-.03 47.91-21.538 47.91-47.98 0-26.43-21.488-47.941-47.91-47.969v-43.96c50.328.19 91.219 41.21 91.219 91.628zm0 0" opacity="1"/>
  </g>
</svg>