<svg version="1.2" xmlns="http://www.w3.org/2000/svg" viewBox="0 0 1170 320" width="1170" height="320">
	<style>
		.s0 { fill: none;stroke: #000000;stroke-linecap: round;stroke-linejoin: round;stroke-width: 16 } 
		.s1 { fill: #d22027 } 
		.s2 { fill: #000000 } 
		.s3 { fill: #ffffff } 
	</style>
	<g>
		<path fill-rule="evenodd" class="s0" d="m20 163h130 15l20 38 25-96 26 204 36-298 35 222 30-108 20 38h148l25-50 25 135 30-190 30 165 30-90 20 30h485"/>
		<path class="s1" d="m833 18h66v33h-66zm165 0h66v33h-66zm-198 33h132v33h-132zm165 0h132v33h-132zm-165 33h297v66h-297zm33 66h231v33h-231zm33 33h165v33h-165zm33 33h99v33h-99zm33 33h33v33h-33z"/>
	</g>
	<path id="Emulation Revival " class="s2" aria-label="Emulation Revival "  d="m341.2 311h-30.6v-37.9h30.6v6h-22.5v9.2h20.6v6.1h-20.6v10.5h22.5zm16.5 0h-7.8v-28.9h39.5q10.4 0 10.4 8.7v20.2h-7.7v-20.7q0-2.6-3.1-2.6h-10.3v23.3h-7.7v-23.3h-13.3zm51-8.6v-20.2h7.7v20.7q0 2.5 3 2.5h10.9v-23.2h7.8v28.8h-19q-10.4 0-10.4-8.6zm39-0.9v-31.2h7.7v31.8q0 3.6 4.4 3.9v5.6q-12.1 0-12.1-10.1zm45.7 9.5h-17.9q-10.4 0-10.5-8.5 0.1-8.6 10.5-8.6h10.2v-3.6q0-2.5-3-2.5h-14.1v-3.5l3.5-2.1h10.9q10.4 0 10.4 8.6zm-20.6-9.6v1.5q0 2.5 3 2.5h9.9v-6.5h-9.9q-3 0-3 2.5zm29.9 1v-29.3h7.7v9.1h11.8v5.6h-11.8v15.1q0 2.5 3 2.5h9.5v3.5l-3.5 2.1h-6.3q-10.4 0-10.4-8.6zm36.2-25.2h-8.2v-6.6h8.2zm-0.2 33.9h-7.8v-28.9h7.8zm8.7-8.7v-11.5q0-8.7 10.4-8.7h9.3q10.4 0 10.4 8.7v11.5q0 8.7-10.4 8.7h-9.3q-10.4 0-10.4-8.7zm7.7-12.1v12.7q0 2.5 3.1 2.5h8.5q3 0 3-2.5v-12.7q0-2.5-3-2.5h-8.5q-3.1 0-3.1 2.5zm39.6 20.8h-7.8v-28.9h19q10.4 0 10.4 8.7v20.2h-7.7v-20.8q0-2.5-3-2.5h-10.9z"/>
	<path id="Emulation Revival " class="s3" aria-label="Emulation Revival "  d=""/>
	<path id="Emulation Revival " class="s1" aria-label="Emulation Revival "  d="m650.7 311h-8.1v-37.9h21.9q10.8 0 10.8 8.9v6.2q0 7-6.6 8.4l7.9 12.9-1 1.5h-6.9l-8.4-13.9h-9.6zm0-31.8v11.9h13.6q2.9 0 2.9-2.4v-7.1q0-2.4-2.9-2.4zm33.8 23.2v-11.6q0-8.6 10.4-8.6h8.6q10.4 0 10.4 8.6v8.2h-21.7v3.9q0 2.5 3 2.5h17.3v3.5l-3.4 2.1h-14.2q-10.4 0-10.4-8.6zm7.7-12.1v3.7h13.9v-3.7q0-2.5-3-2.5h-7.9q-3 0-3 2.5zm38 20.7l-10.9-27.8 0.8-1h6.7l8.7 23.2h0.9l8.8-23.2h6.6l0.9 1-10.9 27.8zm36.8-33.8h-8.2v-6.6h8.2zm-0.2 33.8h-7.8v-28.8h7.8zm16.4 0l-10.9-27.9 0.8-1h6.7l8.7 23.3h1l8.7-23.3h6.7l0.8 1-10.9 27.9zm54.3 0h-17.9q-10.4 0-10.5-8.6 0.1-8.6 10.5-8.6h10.2v-3.6q0-2.5-3-2.5h-14v-3.4l3.4-2.2h10.9q10.4 0 10.4 8.7zm-20.6-9.7v1.5q0 2.6 3.1 2.6h9.8v-6.6h-9.8q-3.1 0-3.1 2.5zm30.9 0.1v-31.1h7.7v31.7q0 3.6 4.4 3.9v5.6q-12.1 0-12.1-10.1z"/>
</svg>