<svg xmlns="http://www.w3.org/2000/svg" version="1.1" xmlns:xlink="http://www.w3.org/1999/xlink" width="512" height="512" x="0" y="0" viewBox="0 0 512 512" style="enable-background:new 0 0 512 512" xml:space="preserve" class=""><g><path fill="#371351" d="M303.8 0H112.7C94.2 0 79.2 15 79.2 33.5v445.1c0 18.5 15 33.4 33.5 33.5h335.5c18.5 0 33.4-15 33.5-33.5l-.9-330.6z" opacity="1" data-original="#371351"></path><path fill="#d7a2fe" d="M302.6 10H120.9c-17.7.1-31.9 14.5-31.8 32.2v427.7c-.1 17.7 14.2 32 31.8 32.1H440c17.7-.1 31.9-14.5 31.8-32.1l-.8-317.6z" opacity="1" data-original="#d7a2fe" class=""></path><path fill="#371351" d="m303.8 0-.5 144.5s.5 3.5 3.5 3.5h174zM44 254.1h299.2c7.5 0 13.6 6.1 13.6 13.6v136c0 7.5-6.1 13.6-13.6 13.6H44c-7.5 0-13.6-6.1-13.6-13.6v-136c0-7.5 6.1-13.6 13.6-13.6z" opacity="1" data-original="#371351"></path><g fill="#fff"><path d="M92.6 389.7v-108h66.8v16.7h-45v28.3h34.3v16.7h-34.3v46.2H92.6zM273.7 304h20.9l-26.3 85.7h-23.2l-14.7-57.5-14.9 57.5h-23.1L166 304h22l15.8 65.1 15.7-65.1h22.9l15.5 65z" fill="#ffffff" opacity="1" data-original="#ffffff"></path></g></g></svg>