<svg xmlns="http://www.w3.org/2000/svg" version="1.1" xmlns:xlink="http://www.w3.org/1999/xlink" width="512" height="512" x="0" y="0" viewBox="0 0 512 512" style="enable-background:new 0 0 512 512" xml:space="preserve" fill-rule="evenodd" class=""><g><path fill="#4d4d4d" d="M289 512h-65c-12 0-21-9-21-20v-69c-9-3-17-7-27-11l-49 49c-8 8-21 8-29 0l-46-47c-8-8-8-21 0-29l48-48c-5-9-9-18-12-28H20c-11 0-20-9-20-20v-65c0-12 9-21 20-21h65c3-10 7-20 12-30l-45-46c-8-8-8-21 0-29l46-46c8-8 21-8 29 0l45 44c10-5 20-10 31-13V20c0-11 9-20 20-20h66c11 0 20 9 20 20v63c11 3 22 8 32 13l44-44c8-8 21-8 29 0l47 46c8 8 8 21 0 29l-46 46c5 10 9 20 12 30h65c11 0 20 9 20 21v65c0 12-9 21-20 21h-67c-4 9-7 18-12 28l47 47c8 8 8 21 0 29l-46 47c-8 8-21 8-29 0l-49-49c-9 4-18 8-26 11v69c-1 11-10 20-21 20zm-78-318c0-6 7-9 11-6l103 62c4 2 4 10 0 12l-103 63c-5 2-11-1-11-7zm15 13v99l81-50zm30 188c-76 0-138-62-138-139 0-76 62-138 138-138 77 0 139 62 139 138 0 77-62 139-139 139zm0-263c-68 0-124 56-124 124s56 124 124 124 124-56 124-124-56-124-124-124zm-81 264c3 0 20 10 37 14 3 1 5 4 5 7v75c0 3 3 6 6 6h66c3 0 6-3 6-6v-75c0-3 2-6 5-7 11-3 23-7 34-14 3-1 6 0 9 2l52 52c3 2 6 2 9 0l46-46c2-3 2-6 0-9l-52-52c-2-2-2-5-1-8 7-12 12-23 16-35 0-3 3-5 7-5h72c3 0 6-2 6-6v-65c0-4-3-6-6-6h-71c-3 0-6-2-7-6-3-13-8-25-14-37-2-3-2-6 1-9l49-49c2-2 2-6 0-8l-46-47c-3-2-6-2-9 0l-48 48c-3 3-6 3-9 1-12-6-24-12-38-15-3-1-5-4-5-7V20c0-3-3-6-6-6h-65c-4 0-6 3-6 6v69c0 3-2 6-6 7-13 3-25 8-38 15-3 2-6 2-8-1l-49-48c-2-2-6-2-8 0l-47 47c-2 2-2 6 0 8l49 49c2 3 3 6 1 9-6 12-11 24-14 37-1 4-4 6-7 6H20c-3 0-6 2-6 6v65c0 4 3 6 6 6h73c3 0 6 2 7 5 4 13 9 24 15 35 1 3 1 6-1 8l-52 52c-2 3-2 6 0 9l47 46c2 2 6 2 8 0l53-53c1-1 3-1 5-1z" opacity="1" data-original="#4d4d4d" class=""></path><path fill="#C399F0" d="M256 380c68 0 124-56 124-124s-56-124-124-124-124 56-124 124 56 124 124 124zm69-118-103 63c-5 2-11-1-11-7V194c0-6 7-9 11-6l103 62c4 2 4 10 0 12z" opacity="1" data-original="#ffe600"></path><path fill="#7ed63f" d="m226 306 81-50-81-49z" opacity="1" data-original="#7ed63f"></path><path fill="#99a4ac" d="M395 256c0 77-62 139-139 139-76 0-138-62-138-139 0-76 62-138 138-138 77 0 139 62 139 138zm18 44c0-3 3-5 7-5h72c3 0 6-2 6-6v-65c0-4-3-6-6-6h-71c-3 0-6-2-7-6-3-13-8-25-14-37-2-3-2-6 1-9l49-49c2-2 2-6 0-8l-46-47c-3-2-6-2-9 0l-48 48c-3 3-6 3-9 1-12-6-24-12-38-15-3-1-5-4-5-7V20c0-3-3-6-6-6h-65c-4 0-6 3-6 6v69c0 3-2 6-6 7-13 3-25 8-38 15-3 2-6 2-8-1l-49-48c-2-2-6-2-8 0l-47 47c-2 2-2 6 0 8l49 49c2 3 3 6 1 9-6 12-11 24-14 37-1 4-4 6-7 6H20c-3 0-6 2-6 6v65c0 4 3 6 6 6h73c3 0 6 2 7 5 4 13 9 24 15 35 1 3 1 6-1 8l-52 52c-2 3-2 6 0 9l47 46c2 2 6 2 8 0l53-53c1-1 3-1 5-1 3 0 20 10 37 14 3 1 5 4 5 7v75c0 3 3 6 6 6h66c3 0 6-3 6-6v-75c0-3 2-6 5-7 11-3 23-7 34-14 3-1 6 0 9 2l52 52c3 2 6 2 9 0l46-46c2-3 2-6 0-9l-52-52c-2-2-2-5-1-8 7-12 12-23 16-35z" opacity="1" data-original="#99a4ac" class=""></path></g></svg>